<svg height="512pt" viewBox="-26 0 512 512.00141" width="512pt" xmlns="http://www.w3.org/2000/svg"><path d="m424.417969 261.746094h-32.878907l-16.269531-7.46875c-63-28.917969-104.472656-89.867188-108.230469-159.058594-.222656-4.136719-3.75-7.292969-7.890624-7.082031-4.136719.226562-7.304688 3.757812-7.082032 7.894531 3.8125 70.160156 43.511719 132.480469 104.644532 165.714844h-253.210938c63.460938-34.53125 104.945312-101.640625 104.945312-176.667969v-48.421875c0-11.945312 9.71875-21.660156 21.664063-21.660156s21.660156 9.714844 21.660156 21.660156v30.976562c0 4.144532 3.359375 7.5 7.496094 7.5 4.140625 0 7.5-3.355468 7.5-7.5v-30.976562c0-20.210938-16.445313-36.65625-36.65625-36.65625-20.214844 0-36.65625 16.445312-36.65625 36.65625v48.421875c0 72.527344-42.589844 138.941406-108.503906 169.199219l-16.269531 7.46875h-32.878907c-18.429687 0-33.800781 13.804687-35.7578122 32.109375-.4374998 4.117187 2.5429692 7.8125 6.6601562 8.253906 4.117187.4375 7.808594-2.542969 8.25-6.660156 1.140625-10.664063 10.101563-18.707031 20.847656-18.707031h388.617188c11.5625 0 20.96875 9.40625 20.96875 20.96875v21.875c0 11.5625-9.40625 20.96875-20.96875 20.96875h-388.617188c-10.746093 0-19.707031-8.042969-20.847656-18.707032-.441406-4.117187-4.132813-7.085937-8.25-6.660156-4.117187.441406-7.097656 4.136719-6.6601562 8.253906 1.9570312 18.304688 17.3281252 32.109375 35.7578122 32.109375h39.355469c65.589844 41.371094 107.007812 86.300781 123.113281 133.566407 10.367188 30.4375 53.257813 30.589843 63.679688 0 16.105469-47.265626 57.519531-92.195313 123.109375-133.566407h39.355468c19.832032 0 35.964844-16.132812 35.964844-35.964843v-21.875c0-19.832032-16.132812-35.964844-35.960937-35.964844zm-176.664063 222.535156c-5.777344 16.960938-29.484375 17.046875-35.292968 0-15.570313-45.695312-52.566407-88.925781-110.097657-128.734375h255.488281c-57.53125 39.808594-94.527343 83.039063-110.097656 128.734375zm0 0"/></svg>